<svg id="ic_bell" xmlns="http://www.w3.org/2000/svg" width="24" height="24" viewBox="0 0 24 24">
  <rect id="Rectangle" width="24" height="24" fill="none"/>
  <path id="Bell" d="M8.205,20a2.5,2.5,0,0,1-2.186-1.289A.832.832,0,0,1,6.761,17.5H9.65a.829.829,0,0,1,.707.4.837.837,0,0,1,.034.81A2.5,2.5,0,0,1,8.205,20Zm6.319-3.329H1.664A1.665,1.665,0,0,1,.049,14.606l.55-2.2v-4.9A7.494,7.494,0,0,1,8.092,0c.166,0,.334.006.5.017a7.628,7.628,0,0,1,6.995,7.7v4.663l.55,2.2a1.677,1.677,0,0,1-.3,1.449A1.657,1.657,0,0,1,14.524,16.671Z" transform="translate(4 2)" fill="#2c2c2c"/>
</svg>
